<?xml version="1.0" standalone="no"?>
<!DOCTYPE svg PUBLIC "-//W3C//DTD SVG 20010904//EN"
 "http://www.w3.org/TR/2001/REC-SVG-20010904/DTD/svg10.dtd">
<svg version="1.0" xmlns="http://www.w3.org/2000/svg"
 viewBox="0 0 480.000000 480.000000"
 preserveAspectRatio="xMidYMid meet">
<metadata>
Created by potrace 1.15, written by Peter Selinger 2001-2017
</metadata>
<g transform="translate(40.000000,840.000000) scale(0.100000,-0.100000)"
fill="white" stroke="black" stroke-width="30" >
<path class="svg-shadow" d="M1712 7806 c-212 -52 -405 -240 -514 -501 -28 -68 -41 -90 -55 -89
-10 1 -48 6 -85 12 -270 42 -534 -151 -633 -462 -42 -131 -51 -327 -21 -456 5
-22 -1 -29 -56 -60 -35 -20 -101 -72 -149 -120 -69 -68 -94 -102 -127 -170
-55 -110 -76 -209 -69 -320 19 -296 235 -535 572 -632 69 -20 102 -23 240 -22
145 0 169 3 250 28 174 53 326 153 417 274 l46 61 27 -40 c16 -22 58 -67 95
-102 230 -215 578 -264 863 -121 114 57 174 108 288 248 4 4 27 -4 51 -18 82
-48 156 -67 273 -73 130 -6 200 8 315 64 109 53 223 170 278 284 98 203 92
424 -16 619 -34 62 -141 180 -191 211 l-23 15 37 67 c65 118 82 239 50 362
-24 92 -63 153 -150 241 -69 69 -98 90 -186 133 -149 74 -231 93 -419 98 -124
3 -172 0 -242 -15 l-88 -18 -10 32 c-15 44 -112 197 -157 248 -98 111 -243
201 -361 225 -69 14 -183 13 -250 -3z"/>
</g>
</svg>
