<?xml version="1.0" standalone="no"?>
<!DOCTYPE svg PUBLIC "-//W3C//DTD SVG 20010904//EN"
 "http://www.w3.org/TR/2001/REC-SVG-20010904/DTD/svg10.dtd">
<svg version="1.0" xmlns="http://www.w3.org/2000/svg"
 viewBox="0 0 480.000000 480.000000"
 preserveAspectRatio="xMidYMid meet">
<metadata>
Created by potrace 1.15, written by Peter Selinger 2001-2017
</metadata>
<g transform="translate(-400.000000,1320.000000) scale(0.100000,-0.100000)"
fill="yellow" stroke="black" stroke-width="30">
<path d="M7119 12771 c-43 -43 -36 -76 34 -179 331 -484 416 -1093 231 -1662
-46 -140 -158 -363 -241 -480 -123 -171 -327 -367 -495 -474 -159 -101 -367
-184 -568 -227 -141 -31 -465 -34 -605 -6 -120 24 -266 69 -377 117 -105 46
-145 50 -175 18 -53 -58 -40 -92 91 -239 281 -317 661 -531 1071 -605 125 -22
389 -30 511 -15 556 69 1036 367 1350 838 405 607 454 1398 129 2058 -105 214
-223 372 -406 550 -159 153 -399 318 -483 332 -30 5 -40 1 -67 -26z"/>
<path d="M4950 11922 c-27 -22 -39 -79 -40 -187 0 -44 -3 -130 -7 -192 l-6
-111 -171 -108 c-195 -122 -213 -136 -221 -175 -7 -32 15 -83 42 -94 10 -4
105 -40 212 -80 l194 -72 57 -218 c64 -246 72 -258 144 -253 40 3 44 7 169
163 70 88 133 168 140 179 12 17 21 18 172 7 88 -6 193 -12 234 -13 70 -2 74
-1 98 27 42 48 30 80 -104 281 l-120 179 79 195 c43 107 79 209 80 225 2 42
-16 70 -52 85 -28 11 -51 7 -247 -48 l-216 -61 -174 145 c-147 122 -179 144
-207 144 -19 0 -44 -8 -56 -18z"/>
</g>
</svg>
