<?xml version="1.0" standalone="no"?>
<!DOCTYPE svg PUBLIC "-//W3C//DTD SVG 20010904//EN"
 "http://www.w3.org/TR/2001/REC-SVG-20010904/DTD/svg10.dtd">
<svg version="1.0" xmlns="http://www.w3.org/2000/svg"
 viewBox="0 0 480.000000 480.000000"
 preserveAspectRatio="xMidYMid meet">
<metadata>
Created by potrace 1.15, written by Peter Selinger 2001-2017
</metadata>
<g transform="translate(-400.000000,880.000000) scale(0.100000,-0.100000)"
fill="blue" stroke="black" stroke-width="30">
<path d="M6390 8290 c-47 -13 -784 -388 -903 -460 -268 -162 -454 -308 -663
-521 -126 -130 -296 -331 -317 -376 -21 -46 22 -113 73 -113 15 0 53 11 86 24
186 76 406 73 594 -8 106 -45 181 -97 282 -196 93 -89 118 -105 152 -94 12 4
57 43 101 88 44 45 114 104 155 131 66 44 198 101 273 119 l27 6 0 -635 0
-635 -27 -42 -28 -41 -5 -336 c-3 -185 -9 -342 -13 -348 -12 -19 -66 -15 -113
6 -40 18 -64 43 -107 111 -67 104 -205 108 -268 8 -17 -28 -20 -45 -16 -108 5
-93 30 -152 92 -219 106 -113 260 -160 462 -140 204 21 320 136 343 341 12
105 13 620 1 672 -5 21 -21 50 -35 65 l-26 27 0 638 0 638 33 -7 c165 -36 288
-106 432 -247 144 -143 141 -142 273 -10 108 109 180 160 292 208 189 82 387
84 597 8 63 -23 74 -25 99 -12 37 17 59 57 50 91 -3 15 -47 87 -96 160 -273
405 -533 639 -925 832 -82 40 -269 126 -415 190 -146 65 -292 131 -325 148
-76 38 -104 46 -135 37z"/>
<path d="M4803 6198 c-196 -414 -218 -475 -218 -598 1 -76 4 -93 34 -155 44
-91 120 -166 208 -208 59 -27 79 -32 148 -32 69 0 89 5 148 32 88 42 165 116
208 200 32 63 34 73 34 167 0 80 -5 116 -24 171 -22 65 -344 761 -360 778 -4
4 -84 -156 -178 -355z"/>
</g>
</svg>
