<?xml version="1.0" standalone="no"?>
<!DOCTYPE svg PUBLIC "-//W3C//DTD SVG 20010904//EN"
 "http://www.w3.org/TR/2001/REC-SVG-20010904/DTD/svg10.dtd">
<svg version="1.0" xmlns="http://www.w3.org/2000/svg"
 width="1066.000000pt" height="1280.000000pt" viewBox="0 0 1066.000000 1280.000000"
 preserveAspectRatio="xMidYMid meet">
<metadata>
Created by potrace 1.15, written by Peter Selinger 2001-2017
</metadata>
<g transform="translate(0.000000,1280.000000) scale(0.100000,-0.100000)"
fill="#795548" stroke="none">
<path d="M8139 12301 c-167 -71 -330 -220 -615 -560 -98 -117 -187 -225 -198
-238 -10 -13 -45 -38 -79 -54 -75 -38 -111 -36 -223 15 -220 99 -531 124 -769
63 -255 -66 -709 -157 -783 -157 -32 0 -34 2 -30 30 3 17 3 30 0 30 -2 0 -78
-36 -169 -80 -143 -69 -174 -88 -236 -148 -142 -135 -217 -195 -230 -185 -6 5
-38 31 -70 56 -32 26 -98 68 -145 93 -48 26 -150 84 -227 129 -266 156 -383
206 -538 225 -48 6 -110 8 -136 4 -46 -6 -53 -11 -99 -68 -99 -122 -139 -222
-167 -421 -9 -60 -20 -129 -26 -153 -17 -77 -39 -295 -39 -388 0 -282 114
-644 362 -1147 l98 -198 -2 -267 c-2 -291 2 -322 61 -521 18 -60 31 -126 31
-158 0 -108 -67 -238 -188 -365 l-74 -77 44 -11 c61 -16 68 -18 68 -28 0 -4
-45 -45 -100 -91 -55 -45 -100 -89 -100 -97 0 -8 7 -40 16 -72 l16 -59 -49
-49 c-48 -48 -51 -54 -76 -161 -34 -144 -67 -209 -222 -428 -165 -233 -235
-337 -271 -405 -19 -36 -77 -103 -165 -192 -143 -144 -242 -266 -351 -433
-450 -688 -643 -989 -742 -1162 -26 -46 -52 -85 -57 -88 -5 -4 -27 21 -48 55
-42 64 -75 153 -86 230 -13 93 -65 121 -104 55 -18 -31 -24 -34 -41 -25 -31
17 -69 79 -90 151 -39 129 -91 171 -117 94 -7 -22 -37 -70 -67 -106 -94 -118
-208 -369 -222 -495 -5 -39 -12 -55 -24 -59 -70 -22 -3 -371 112 -586 22 -41
23 -58 29 -279 13 -449 47 -700 135 -971 104 -322 249 -576 469 -819 42 -47
115 -138 162 -202 46 -65 100 -131 119 -148 69 -60 369 -194 473 -211 76 -12
157 -4 225 23 71 27 237 41 431 35 122 -4 183 -10 215 -22 36 -13 64 -15 145
-10 88 6 106 4 153 -14 29 -12 74 -21 100 -21 63 0 140 -20 302 -75 l135 -47
145 6 c156 6 247 18 490 66 262 52 403 66 533 52 62 -6 150 -21 196 -33 92
-23 127 -22 281 6 95 17 129 41 161 110 26 57 24 94 -16 235 -19 68 -33 125
-32 127 2 1 18 -41 36 -95 43 -125 181 -407 268 -545 152 -240 360 -488 421
-502 15 -3 82 6 150 20 74 15 156 25 205 25 45 0 93 1 107 2 14 1 53 -2 87 -7
l61 -7 16 30 c9 17 16 41 16 53 0 14 5 19 14 16 55 -21 172 71 195 155 8 30
14 119 14 251 l2 206 -33 33 c-17 19 -78 59 -134 89 -108 57 -189 129 -233
204 -31 53 -52 160 -76 389 -11 104 -22 193 -25 198 -8 12 32 54 76 80 19 12
67 55 105 95 42 44 78 73 90 73 16 0 28 18 55 82 36 86 59 106 77 66 9 -21 11
-18 23 31 17 72 58 116 145 156 39 18 81 44 92 58 17 22 26 25 57 20 20 -3 36
-10 36 -15 0 -6 18 -50 39 -98 113 -251 176 -501 206 -818 19 -200 19 -307 0
-392 -8 -36 -14 -86 -15 -111 0 -45 3 -49 63 -106 35 -33 77 -65 94 -72 23 -9
39 -30 67 -86 75 -150 170 -191 347 -148 l68 16 46 -42 c63 -58 116 -81 191
-81 81 0 144 32 230 119 44 45 80 73 105 80 52 16 89 72 104 162 7 35 -47 228
-165 595 -44 137 -70 271 -100 524 -11 96 -28 222 -36 280 -22 150 -29 410
-15 585 15 193 45 430 137 1080 41 294 59 350 133 422 53 52 59 85 71 418 12
338 17 376 87 629 143 524 148 741 24 1061 -42 108 -58 179 -91 405 -30 201
-75 398 -117 505 -84 219 -113 311 -123 405 -13 121 -33 189 -77 270 -32 58
-34 67 -24 100 6 19 20 103 31 185 33 239 69 444 92 525 55 197 55 240 -1 310
-15 19 -30 40 -34 46 -3 6 -16 83 -27 170 -44 342 -88 474 -195 593 l-34 37
30 94 c68 211 87 377 70 595 -22 274 -64 490 -136 711 -97 298 -228 492 -381
565 -77 36 -111 36 -195 0z m197 -272 c34 -20 99 -99 142 -170 45 -74 126
-406 157 -642 20 -155 20 -390 -1 -498 -17 -92 -75 -229 -97 -229 -7 0 -29 17
-49 38 -53 54 -178 224 -178 242 0 43 34 139 62 174 24 30 27 37 12 33 -94
-28 -136 -38 -144 -35 -6 2 20 53 56 113 37 61 69 117 72 125 3 8 -32 -18 -78
-57 -46 -40 -86 -71 -88 -69 -2 2 6 85 17 185 12 100 21 189 20 199 0 9 -22
-48 -49 -127 -28 -79 -52 -146 -54 -148 -2 -3 -8 22 -11 54 -4 32 -10 76 -14
98 l-7 40 -44 -112 c-25 -61 -48 -110 -51 -107 -3 2 -12 37 -19 79 -7 41 -16
75 -19 75 -4 0 -21 -40 -40 -89 l-33 -90 -52 -12 c-76 -17 -222 -8 -271 16
-40 20 -40 21 -49 93 -15 127 -5 154 129 352 146 215 275 351 369 390 32 14
93 42 135 62 88 42 130 46 177 17z m-4404 -849 c217 -73 556 -284 750 -468 53
-51 67 -79 33 -66 -9 4 -29 -8 -49 -28 -51 -51 -69 -168 -46 -303 4 -27 7 -51
5 -53 -2 -2 -18 17 -36 43 -37 51 -53 53 -57 7 -5 -53 -18 -37 -37 48 -10 44
-22 80 -26 80 -4 0 -18 -31 -30 -70 -13 -38 -26 -70 -30 -70 -4 0 -29 38 -55
85 -27 47 -52 85 -56 85 -5 0 -8 -31 -8 -70 0 -38 -2 -70 -5 -70 -3 0 -56 45
-118 99 -61 55 -113 98 -115 97 -1 -2 12 -34 29 -72 17 -38 40 -89 50 -113
l20 -44 -73 6 -73 7 26 -23 c14 -12 39 -32 55 -43 l29 -22 -42 -11 -43 -12 26
-67 c20 -49 30 -104 39 -207 13 -130 12 -143 -5 -193 -23 -66 -60 -130 -92
-160 l-24 -22 -72 97 c-118 161 -241 451 -282 662 -50 261 -27 604 60 865 l12
36 75 0 c57 0 97 -7 165 -30z m3281 -1151 l6 -21 34 21 c19 11 37 21 40 21 3
0 10 -14 16 -31 10 -28 14 -30 52 -27 l41 3 38 -92 c31 -74 39 -106 41 -165
l2 -73 -86 -175 c-96 -195 -145 -260 -216 -281 -61 -18 -107 0 -179 69 -72 69
-86 107 -86 237 -1 128 50 282 139 420 35 56 36 57 56 39 13 -12 23 -15 27 -7
30 45 58 83 63 83 4 0 9 -10 12 -21z m-1552 -295 c24 -12 37 -13 63 -4 26 8
43 7 82 -6 135 -45 222 -117 248 -204 35 -118 29 -301 -14 -397 -24 -55 -63
-73 -156 -73 -90 0 -176 23 -322 86 -44 19 -134 104 -189 179 -50 67 -49 60
-16 233 15 79 17 82 42 80 23 -3 26 1 29 35 3 35 5 37 38 37 25 0 34 4 34 16
0 17 28 16 72 -1 11 -4 21 0 30 14 15 25 20 26 59 5z m3081 -121 c28 -32 66
-119 108 -244 53 -158 52 -216 -4 -364 -32 -83 -39 -117 -46 -215 -7 -95 -14
-128 -39 -187 -33 -77 -39 -135 -19 -189 13 -36 12 -41 -52 -294 -44 -176 -70
-233 -215 -480 -74 -125 -110 -195 -119 -234 -6 -26 -66 -96 -219 -256 -70
-74 -444 -413 -519 -471 -32 -25 -87 -55 -121 -67 -52 -18 -294 -71 -467 -103
-81 -15 -431 -21 -622 -11 l-187 9 -83 40 c-46 22 -126 71 -178 109 -52 39
-122 81 -155 94 -33 13 -132 54 -220 91 -88 37 -177 70 -197 74 -29 6 -55 24
-114 86 -66 67 -83 79 -126 88 -62 14 -95 31 -151 78 -24 21 -86 72 -136 113
-127 103 -186 177 -212 265 -34 118 -60 183 -81 202 -21 18 -21 18 -15 -24 3
-24 3 -43 1 -43 -13 0 -154 176 -154 193 0 12 -30 49 -73 91 -88 87 -141 181
-157 281 -6 37 -14 73 -17 79 -4 6 6 0 22 -13 l30 -23 3 93 c4 130 7 133 137
125 55 -3 120 -11 145 -17 108 -25 241 -115 291 -196 36 -58 59 -220 59 -416
0 -244 5 -249 205 -228 419 46 664 202 1010 645 76 96 141 173 145 171 4 -3
16 -57 25 -121 20 -130 16 -285 -9 -389 -14 -57 -14 -60 11 -110 14 -27 28
-52 32 -55 3 -3 19 -22 35 -44 28 -37 30 -38 82 -34 40 3 73 16 134 52 l82 47
40 -16 40 -16 51 51 50 50 79 0 c91 0 120 12 168 67 20 23 35 33 38 25 13 -41
139 -56 202 -24 84 42 99 164 42 329 -18 50 -32 105 -32 121 0 16 -16 64 -35
107 -20 43 -33 80 -31 83 7 6 103 -32 191 -76 39 -19 95 -43 125 -54 30 -10
72 -32 92 -48 20 -17 41 -30 46 -30 36 0 159 -154 222 -280 81 -160 111 -329
75 -410 -14 -31 -15 -43 -6 -54 18 -22 37 -9 55 35 19 46 20 110 5 234 -17
142 -54 208 -243 435 -59 71 -91 116 -82 118 7 2 47 -9 87 -23 90 -31 203 -45
375 -45 92 0 156 -6 220 -20 98 -22 140 -25 148 -11 3 5 -6 34 -20 65 -31 67
-29 110 4 114 13 2 22 7 20 10 -42 77 -81 225 -97 362 -13 113 -30 324 -26
328 2 2 13 -15 26 -37 12 -23 26 -41 29 -41 4 0 10 19 13 43 15 103 115 289
216 400 29 32 42 34 63 10z m-1065 -226 c3 -4 -10 -7 -30 -7 -78 0 -138 -21
-185 -64 -76 -69 -126 -208 -107 -296 4 -17 21 -48 38 -67 24 -27 27 -33 11
-25 -18 9 -35 27 -108 113 -7 9 -20 19 -27 21 -19 7 5 56 87 180 72 109 99
132 174 151 49 13 131 9 147 -6z m355 -78 c17 6 34 11 38 11 12 0 18 -47 7
-65 -5 -9 -17 -56 -27 -104 -22 -109 -45 -154 -108 -213 -60 -56 -124 -79
-237 -83 -72 -3 -75 -3 -25 4 155 23 220 58 275 146 25 40 30 59 30 109 0 74
-31 133 -101 194 l-45 41 81 -25 c67 -21 87 -23 112 -15z m-351 -128 c42 -42
43 -52 6 -104 -16 -23 -24 -27 -48 -23 -16 3 -43 9 -60 12 -23 4 -34 15 -45
40 -13 30 -13 38 2 67 21 40 31 47 73 47 26 0 42 -9 72 -39z m-1872 -204 c107
-36 128 -47 154 -79 l29 -37 -35 -31 c-28 -24 -38 -43 -48 -88 -16 -80 -45
-152 -75 -187 -18 -20 -24 -24 -19 -10 34 88 57 190 58 252 2 62 -1 74 -22 97
-31 33 -145 92 -212 110 l-54 15 50 0 c33 0 91 -14 174 -42z m-494 -102 c-45
-85 -43 -211 6 -307 32 -62 167 -127 273 -131 53 -2 51 -13 -3 -22 -120 -20
-348 107 -367 204 -4 20 -15 33 -35 41 -53 22 -56 37 -16 78 20 20 63 70 97
110 34 39 64 72 66 72 2 0 -7 -20 -21 -45z m326 -74 c22 -23 29 -39 29 -68 0
-43 -11 -61 -54 -87 -22 -14 -34 -16 -51 -8 -39 18 -70 114 -47 148 9 14 63
43 80 44 8 0 27 -13 43 -29z m2775 -2156 c16 -24 16 -32 0 -111 -39 -199 -156
-493 -269 -674 -51 -81 -323 -383 -366 -404 -14 -8 -41 -17 -58 -21 -18 -3
-43 -19 -55 -35 -35 -42 -60 -52 -86 -34 -31 22 -28 64 13 186 33 97 134 309
178 372 24 35 103 86 132 86 29 0 82 58 148 162 31 47 76 109 100 136 25 28
54 75 66 106 26 71 98 216 119 239 22 25 59 21 78 -8z m-3275 -223 c24 -15 56
-33 71 -39 15 -7 54 -40 85 -74 124 -133 141 -149 156 -149 10 0 14 6 11 13
-3 8 4 24 14 37 28 34 64 21 108 -40 20 -28 39 -50 42 -50 4 0 16 7 26 15 30
23 42 19 86 -27 l40 -42 30 23 c46 33 69 25 107 -40 l32 -56 73 -6 c47 -3 93
-14 129 -30 30 -14 85 -28 123 -32 79 -9 105 -27 160 -110 20 -30 43 -58 50
-62 25 -15 128 -138 147 -175 11 -21 33 -77 51 -124 l31 -87 -24 -18 c-35 -27
-75 -23 -117 11 -49 39 -107 58 -229 75 -221 32 -297 57 -398 133 l-85 63 -26
-20 c-35 -28 -49 -26 -116 12 -92 52 -203 145 -302 253 -162 178 -397 522
-382 560 9 23 59 16 107 -14z m3873 -648 c0 -51 -10 -99 -37 -181 -40 -121
-46 -186 -22 -213 14 -16 9 -22 -64 -79 -74 -57 -191 -175 -191 -192 0 -19 22
-18 60 1 22 11 40 18 40 16 0 -3 -23 -44 -50 -90 -46 -79 -123 -184 -202 -280
l-33 -39 35 6 35 6 -35 -27 c-161 -127 -192 -162 -194 -224 -1 -48 -37 -117
-92 -178 -39 -42 -47 -77 -63 -247 -14 -148 -70 -258 -165 -323 -48 -33 -59
-61 -45 -112 11 -42 71 -107 204 -224 l58 -50 4 -140 c5 -171 9 -200 34 -225
36 -36 101 -19 208 54 38 26 56 31 122 35 72 4 79 3 102 -20 19 -19 25 -38 30
-95 3 -40 11 -81 16 -92 6 -11 11 -36 11 -55 0 -74 32 -276 76 -475 63 -285
84 -403 89 -494 4 -65 14 -103 65 -231 66 -171 86 -239 95 -324 5 -49 2 -65
-22 -112 -24 -47 -33 -55 -59 -58 -45 -4 -59 19 -60 100 0 38 -5 73 -11 79
-23 23 -33 -3 -33 -90 0 -78 -3 -95 -28 -142 -73 -140 -202 -126 -256 28 -12
34 -11 46 13 122 29 95 61 135 115 145 42 8 45 19 11 42 -20 13 -38 15 -83 10
-139 -16 -177 -70 -197 -280 -8 -77 -34 -116 -80 -116 -58 0 -176 86 -202 147
-30 74 -8 175 49 216 40 30 119 34 162 9 l34 -20 -10 29 c-16 46 -72 89 -116
89 -72 0 -171 -86 -204 -176 -11 -32 -15 -34 -60 -34 -38 0 -54 5 -73 24 -38
38 -40 92 -9 304 l27 191 -36 168 c-20 92 -53 244 -72 337 -20 92 -52 223 -72
290 -61 209 -65 229 -61 284 4 48 10 58 56 105 l52 52 -20 33 c-11 17 -21 32
-24 32 -2 0 -26 -33 -54 -72 -87 -127 -108 -134 -119 -40 -3 33 -11 52 -19 52
-11 0 -48 -67 -74 -135 -16 -41 -30 -19 -30 45 0 32 -4 61 -9 64 -13 8 -59
-31 -76 -65 -9 -16 -29 -66 -46 -111 -41 -115 -89 -179 -194 -265 -49 -41
-138 -124 -196 -185 l-106 -111 -23 49 c-45 92 -40 236 20 554 35 188 46 402
23 422 -21 17 -44 0 -59 -46 -35 -101 -79 -605 -79 -901 1 -145 5 -200 23
-285 11 -58 26 -150 32 -205 15 -143 48 -313 70 -354 26 -52 69 -88 114 -96
63 -11 155 -63 210 -118 65 -66 96 -130 96 -199 0 -82 -9 -85 -70 -22 -66 66
-133 111 -195 129 -61 19 -65 3 -7 -34 27 -17 79 -62 115 -100 135 -139 165
-284 80 -373 l-26 -28 -33 48 c-98 146 -279 291 -365 292 -14 0 -33 -6 -43
-13 -16 -12 -15 -14 21 -25 76 -23 221 -165 274 -269 20 -39 25 -89 10 -111
-11 -18 -74 -31 -150 -32 -99 0 -131 20 -234 149 -120 151 -177 192 -177 127
0 -41 50 -123 120 -196 39 -40 70 -76 70 -80 0 -14 -62 -20 -107 -10 -100 23
-178 90 -208 179 -10 32 -30 59 -63 87 -97 84 -194 236 -263 414 -23 58 -52
124 -65 146 -28 50 -81 194 -118 323 -41 142 -76 203 -232 401 -84 107 -204
278 -204 291 0 4 19 11 43 17 100 26 127 117 72 248 -25 59 -8 37 37 -48 25
-49 65 -105 98 -138 46 -48 68 -61 140 -87 113 -41 221 -57 326 -50 134 10
169 40 206 180 34 130 48 238 48 371 1 158 15 240 70 411 45 140 64 175 147
272 29 35 53 70 53 79 0 50 -57 85 -96 59 -30 -19 -81 -19 -141 1 -66 22 -83
37 -52 44 21 5 10 16 -86 82 -125 86 -160 122 -332 335 -205 252 -274 305
-553 429 -102 45 -205 94 -230 108 -25 14 -55 26 -67 26 -50 0 -56 11 -18 37
56 38 50 45 -80 97 -79 32 -155 85 -155 107 0 4 16 5 35 2 29 -5 36 -2 45 19
8 16 8 32 1 50 -16 42 -79 106 -112 113 -22 5 -29 12 -29 29 0 29 -17 51 -148
195 -109 120 -138 158 -129 167 7 8 131 -48 266 -119 l114 -60 -6 46 c-4 29
-3 47 3 47 6 0 96 -52 202 -115 105 -63 198 -115 206 -115 11 0 13 8 9 37 l-6
37 77 -75 c131 -129 148 -136 179 -76 l15 31 29 -35 29 -34 -6 33 c-4 17 -3
32 1 32 4 0 29 -24 56 -52 47 -51 49 -52 49 -25 0 35 20 35 79 2 74 -42 171
-55 171 -23 0 6 -16 31 -36 54 -19 24 -32 44 -27 44 25 -1 195 -50 238 -69 86
-38 247 -152 337 -238 77 -74 90 -83 108 -73 14 7 20 21 20 43 0 34 -31 110
-49 121 -6 4 -11 11 -11 16 0 22 180 -54 270 -114 52 -35 128 -80 168 -100
l72 -36 25 25 c14 13 28 38 31 55 10 46 24 47 24 1 0 -22 4 -43 10 -46 11 -7
60 38 60 54 0 13 92 61 116 61 16 0 16 -1 1 -18 -23 -25 -21 -42 3 -42 122 0
354 121 541 282 63 55 79 64 79 48 0 -11 3 -20 8 -20 4 0 48 34 97 74 137 113
319 236 349 236 3 0 3 -13 0 -30 -9 -43 17 -40 80 9 104 80 155 138 192 219
37 82 55 102 89 102 13 0 35 16 55 41 31 39 103 82 125 75 6 -1 10 -34 9 -72z
m-4729 -1798 c36 -17 98 -72 227 -202 97 -99 202 -210 232 -248 60 -76 120
-190 130 -247 3 -19 28 -67 55 -105 49 -70 114 -210 148 -319 14 -47 18 -93
18 -215 0 -141 -3 -163 -28 -250 -79 -264 -140 -317 -445 -387 -89 -21 -159
-39 -157 -41 2 -2 60 4 128 13 150 20 224 17 382 -18 138 -31 266 -72 412
-132 247 -102 392 -230 393 -346 0 -41 -49 -146 -82 -175 -21 -19 -21 -19 -15
4 8 32 -19 128 -50 181 -33 56 -99 128 -124 136 -11 4 -26 1 -34 -5 -18 -15
-14 -22 61 -127 71 -98 77 -114 63 -166 -16 -58 -58 -97 -106 -97 -47 0 -57 8
-107 83 -51 77 -182 205 -259 255 -70 46 -140 68 -180 58 -61 -15 -25 -49 147
-142 150 -81 236 -161 236 -221 0 -17 -12 -18 -202 -11 -226 8 -218 9 -458
-65 -132 -41 -138 -42 -275 -41 -101 0 -155 5 -195 18 -30 9 -132 25 -227 36
-202 23 -264 42 -337 104 -52 45 -54 46 -125 46 l-71 0 6 58 c9 75 72 182 126
212 42 24 45 32 23 83 -33 79 -4 128 42 71 l23 -29 0 44 c0 24 -8 81 -17 127
-17 82 -17 84 3 126 31 64 167 241 208 273 l36 27 81 -12 80 -13 28 27 c36 35
104 35 226 0 16 -5 18 -4 8 7 -7 7 -13 21 -13 31 0 26 35 23 136 -12 48 -16
91 -27 96 -24 5 4 8 86 7 201 -2 169 0 197 14 204 10 6 21 4 31 -7 15 -14 17
-13 27 13 18 43 23 186 9 256 -23 122 -93 264 -173 354 -32 36 -34 43 -40 128
-9 142 -71 266 -230 458 l-39 47 49 0 c30 0 67 -9 98 -24z"/>
<path d="M5881 8062 c-59 -61 -126 -180 -145 -257 -21 -83 -36 -214 -36 -311
0 -115 27 -197 86 -263 75 -84 91 -66 51 55 -38 110 -52 200 -52 329 0 153 23
232 95 330 72 98 93 134 86 150 -10 27 -39 16 -85 -33z"/>
<path d="M6930 7781 c-178 -39 -334 -117 -429 -215 -42 -42 -43 -47 -39 -93 8
-79 46 -151 125 -237 40 -43 73 -83 73 -88 0 -19 79 -40 172 -45 79 -5 102 -3
121 10 14 9 27 13 31 10 3 -4 6 -37 6 -74 0 -78 -4 -83 -133 -163 -111 -69
-145 -79 -277 -80 -125 -1 -232 18 -330 59 -69 29 -145 41 -155 25 -20 -33 86
-90 230 -125 270 -65 470 -33 679 108 l90 60 110 -22 c61 -12 139 -24 172 -28
117 -11 342 38 428 94 53 34 132 109 168 157 51 70 31 86 -43 36 -24 -16 -52
-30 -61 -30 -9 0 -26 -16 -38 -35 -17 -27 -43 -46 -113 -80 -51 -24 -114 -49
-140 -56 -97 -24 -231 0 -393 70 -46 20 -53 27 -58 59 -13 79 -17 74 67 102
62 21 89 37 128 76 72 71 82 105 78 266 -4 119 -7 137 -28 171 -39 63 -85 80
-231 84 -95 2 -145 -2 -210 -16z m330 -198 c0 -10 -14 -56 -31 -103 -16 -47
-37 -106 -45 -132 -8 -26 -23 -52 -34 -58 -17 -9 -20 -6 -26 25 -14 76 19 210
64 258 29 31 72 37 72 10z m-508 -184 c26 -17 61 -52 78 -80 18 -27 45 -59 62
-70 23 -17 26 -24 17 -35 -16 -19 -57 4 -117 65 -26 26 -65 60 -87 76 -57 40
-95 77 -90 85 9 14 89 -11 137 -41z"/>
</g>
</svg>
