<?xml version="1.0" standalone="no"?>
<!DOCTYPE svg PUBLIC "-//W3C//DTD SVG 20010904//EN"
 "http://www.w3.org/TR/2001/REC-SVG-20010904/DTD/svg10.dtd">
<svg version="1.0" xmlns="http://www.w3.org/2000/svg"
 viewBox="0 0 480.000000 480.000000"
 preserveAspectRatio="xMidYMid meet">
<metadata>
Created by potrace 1.15, written by Peter Selinger 2001-2017
</metadata>
<g transform="translate(40.000000,420.000000) scale(0.100000,-0.100000)"
fill="white" stroke="black" stroke-width="30">
<path d="M1687 3780 c-357 -64 -636 -320 -739 -676 -20 -68 -23 -101 -22 -239
0 -144 3 -169 27 -248 42 -135 116 -273 195 -359 14 -15 24 -29 21 -31 -2 -2
-32 -25 -66 -50 -219 -166 -373 -406 -445 -692 -19 -77 -23 -116 -22 -270 0
-202 16 -291 81 -454 159 -396 522 -683 946 -745 469 -70 928 136 1191 534 92
139 153 295 182 464 20 118 15 350 -10 461 -68 301 -258 580 -515 752 -2 1 11
19 29 40 57 65 128 181 159 261 50 130 64 226 58 382 -7 156 -21 219 -83 349
-116 247 -316 418 -581 497 -72 22 -113 27 -223 30 -74 1 -157 -1 -183 -6z"/>
<path d="M360 3371 c-49 -26 -83 -93 -77 -150 5 -47 27 -83 71 -115 39 -30
133 -29 173 0 70 53 88 154 39 219 -15 19 -40 42 -56 50 -40 20 -108 19 -150
-4z"/>
<path d="M3227 2839 c-58 -14 -92 -35 -131 -81 -41 -48 -56 -91 -56 -163 1
-125 91 -223 214 -232 82 -7 134 9 189 57 101 89 109 242 18 343 -58 64 -154
96 -234 76z"/>
<path d="M126 2785 c-152 -54 -167 -264 -24 -334 114 -55 244 13 264 137 13
84 -48 178 -133 201 -48 14 -59 13 -107 -4z"/>
<path d="M3495 1893 c-126 -34 -143 -216 -25 -275 97 -49 210 21 210 129 0 53
-20 94 -58 122 -31 21 -93 33 -127 24z"/>
<path d="M303 1690 c-40 -24 -53 -48 -53 -99 0 -106 134 -148 200 -63 24 30
26 98 4 130 -19 27 -65 52 -96 52 -13 0 -37 -9 -55 -20z"/>
<path d="M3355 1266 c-98 -44 -137 -173 -78 -263 73 -114 245 -111 311 5 26
46 30 128 8 170 -19 36 -65 78 -99 91 -38 15 -106 13 -142 -3z"/>
<path d="M215 771 c-138 -35 -213 -180 -160 -307 62 -149 264 -189 372 -72
106 113 70 293 -72 366 -29 15 -105 22 -140 13z"/>
<path d="M3633 258 c-36 -9 -82 -60 -84 -91 -4 -71 13 -107 63 -133 122 -63
239 102 138 196 -33 31 -71 40 -117 28z"/>
</g>
</svg>
