<?xml version="1.0" standalone="no"?>
<!DOCTYPE svg PUBLIC "-//W3C//DTD SVG 20010904//EN"
 "http://www.w3.org/TR/2001/REC-SVG-20010904/DTD/svg10.dtd">
<svg version="1.0" xmlns="http://www.w3.org/2000/svg"
 viewBox="0 0 480.000000 480.000000"
 preserveAspectRatio="xMidYMid meet">
<metadata>
Created by potrace 1.15, written by Peter Selinger 2001-2017
</metadata>
<g transform="translate(40.000000,1320.000000) scale(0.100000,-0.100000)"
fill="orangered" stroke="black" stroke-width="30">
<path d="M2544 12786 c-54 -24 -84 -77 -181 -317 -103 -256 -118 -320 -89
-378 46 -88 160 -94 229 -12 36 44 227 528 227 577 0 97 -102 168 -186 130z"/>
<path d="M1115 12783 c-64 -17 -111 -89 -102 -157 7 -47 194 -490 231 -546 49
-74 148 -91 207 -34 34 33 53 92 44 137 -14 62 -216 522 -243 551 -37 39 -95
60 -137 49z"/>
<path d="M1678 11950 c-210 -44 -393 -144 -544 -296 -329 -333 -404 -842 -182
-1254 272 -508 897 -709 1415 -454 654 320 801 1191 289 1708 -155 157 -348
259 -565 300 -113 22 -301 20 -413 -4z"/>
<path d="M3560 11769 c-125 -50 -461 -197 -485 -212 -47 -31 -68 -66 -73 -123
-4 -48 -2 -55 31 -90 35 -38 37 -39 104 -39 64 0 82 6 308 103 252 108 295
135 316 199 36 109 -86 208 -201 162z"/>
<path d="M84 11736 c-62 -28 -95 -98 -75 -159 22 -66 62 -91 326 -198 264
-107 308 -118 370 -88 103 49 94 193 -15 249 -96 49 -489 202 -530 206 -27 3
-57 -1 -76 -10z"/>
<path d="M3073 10510 c-77 -47 -82 -152 -10 -218 40 -37 501 -223 567 -228
100 -9 170 57 155 148 -14 78 -49 102 -332 216 -275 111 -317 121 -380 82z"/>
<path d="M352 10401 c-140 -60 -265 -119 -279 -132 -29 -27 -53 -77 -53 -110
0 -36 31 -88 65 -109 62 -39 104 -30 353 76 125 53 246 107 269 120 106 61
113 197 13 249 -60 31 -101 21 -368 -94z"/>
<path d="M2383 9789 c-18 -5 -44 -25 -60 -46 -50 -65 -43 -103 71 -368 54
-126 109 -249 122 -272 30 -52 98 -88 149 -79 73 14 125 94 110 169 -4 18 -54
143 -111 278 -108 254 -133 294 -197 318 -33 13 -40 13 -84 0z"/>
<path d="M1354 9779 c-18 -5 -45 -24 -62 -43 -39 -44 -232 -527 -232 -580 0
-49 33 -112 70 -131 56 -29 116 -17 166 34 41 41 234 522 234 582 0 45 -29
108 -58 126 -29 17 -83 23 -118 12z"/>
</g>
</svg>
